# xmcd
#
# Track frame offsets: 
#        150
#        15208
#        31733
#        47248
#        61740
#        79520
#        92182
#        105518
#        122010
#        136059
#        152748
#        167816
#
# Disc length: 2413 seconds
#
# Revision: 0
# Processed by: cddbd v1.5.2PL0 Copyright (c) Steve Scherf et al.
# Submitted via: ExactAudioCopy v1.3
#
DISCID=83096b0c
DTITLE=Joe Nichols - Never Gets Old
DYEAR=2017
DGENRE=Country
TTITLE0=Diamonds Make Babies
TTITLE1=Girl in the Song
TTITLE2=We All Carry Something
TTITLE3=I'd Sing About You
TTITLE4=Breathless
TTITLE5=Tall Boys
TTITLE6=Hostage
TTITLE7=Never Gets Old
TTITLE8=Billy Graham's Bible
TTITLE9=So You're Saying
TTITLE10=This Side of the River
TTITLE11=Baby Got Back
EXTD=
EXTT0=
EXTT1=
EXTT2=
EXTT3=
EXTT4=
EXTT5=
EXTT6=
EXTT7=
EXTT8=
EXTT9=
EXTT10=
EXTT11=
PLAYORDER=
